<?xml version="1.0" encoding="UTF-8"?>
<svg viewBox="0 0 24 24" fill="none" xmlns="http://www.w3.org/2000/svg">
  <path d="M6.5 16 L4 18.5 M7.5 18 L5.5 20 M17.5 16 L20 18.5 M16.5 18 L18.5 20" stroke="#a55a2e" stroke-width="1.3" stroke-linecap="round" />
  <path d="M7 12.5 C 6 11.5 5.9 10.5 6 9.3 M17 12.5 C 18 11.5 18.1 10.5 18 9.3" stroke="#c4713d" stroke-width="1.5" stroke-linecap="round" />
  <path d="M5.5 7.5 L4.5 5.35 A2.4 2.4 0 1 0 6.5 5.35 Z" fill="#c4713d" />
  <path d="M18.5 7.5 L17.5 5.35 A2.4 2.4 0 1 0 19.5 5.35 Z" fill="#c4713d" />
  <ellipse cx="12" cy="15" rx="6.5" ry="4" fill="#c4713d" />
  <circle cx="9.8" cy="13.2" r="0.9" fill="#121a11" />
  <circle cx="14.2" cy="13.2" r="0.9" fill="#121a11" />
</svg>
